<?xml version="1.0" encoding="utf-8"?>
<!-- Generator: Adobe Illustrator 21.1.0, SVG Export Plug-In . SVG Version: 6.00 Build 0)  -->
<svg version="1.1" id="Layer_1" xmlns="http://www.w3.org/2000/svg" xmlns:xlink="http://www.w3.org/1999/xlink" x="0px" y="0px"
	 viewBox="0 0 211 140" style="enable-background:new 0 0 211 140;" xml:space="preserve">
<style type="text/css">
	.st0{fill:#000081;}
	.st1{fill:none;stroke:#000081;stroke-width:2.0325;stroke-linejoin:round;stroke-miterlimit:10;}
</style>
<g>
	<g>
		<g>
			<g>
				<path class="st0" d="M45.6,80.5c-0.5,0-0.7-0.2-0.7-0.6V61.3c0-0.4,0.2-0.7,0.7-0.7h8.1c2.6,0,4.7,0.7,6.2,2s2.3,3.1,2.3,5.3
					c0,2.3-0.8,4.1-2.4,5.4c-1.6,1.3-3.7,2-6.3,2h-3.2v4.4c0,0.4-0.2,0.6-0.6,0.6H45.6z M50.2,71.1h2.9c1.1,0,1.9-0.3,2.6-0.9
					s1-1.3,1-2.3c0-0.9-0.3-1.6-1-2.2c-0.7-0.5-1.5-0.8-2.6-0.8h-2.9V71.1z"/>
				<path class="st0" d="M82.7,78.1C80.6,80,78,81,74.7,81c-3.3,0-5.9-1-7.9-2.9c-2-1.9-3-4.4-3-7.5c0-3.1,1-5.6,3-7.5
					c2-1.9,4.7-2.9,7.9-2.9c3.3,0,5.9,1,7.9,2.9c2,1.9,3,4.4,3,7.5C85.7,73.7,84.7,76.2,82.7,78.1z M70.7,74.8c1,1.1,2.3,1.6,4,1.6
					c1.6,0,3-0.5,4-1.6c1-1.1,1.5-2.5,1.5-4.2c0-1.7-0.5-3.1-1.5-4.2c-1-1.1-2.4-1.6-4-1.6c-1.6,0-3,0.5-4,1.6
					c-1,1.1-1.5,2.5-1.5,4.2C69.2,72.3,69.7,73.7,70.7,74.8z"/>
				<path class="st0" d="M93.3,76.1h9.3c0.4,0,0.7,0.2,0.7,0.7v3.1c0,0.4-0.2,0.6-0.7,0.6h-14c-0.5,0-0.7-0.2-0.7-0.6V61.3
					c0-0.4,0.2-0.7,0.7-0.7h4c0.4,0,0.6,0.2,0.6,0.7V76.1z"/>
				<path class="st0" d="M121.3,64.3c0,0.4-0.2,0.6-0.6,0.6h-9.6v3.6h8c0.5,0,0.7,0.2,0.7,0.6v2.9c0,0.4-0.2,0.6-0.7,0.6h-8v3.5h9.6
					c0.4,0,0.6,0.2,0.6,0.6v3c0,0.4-0.2,0.6-0.6,0.6h-14.3c-0.5,0-0.7-0.2-0.7-0.6V61.3c0-0.4,0.2-0.7,0.7-0.7h14.3
					c0.4,0,0.6,0.2,0.6,0.7V64.3z"/>
				<path class="st0" d="M133.9,81c-3.3,0-5.9-1-7.8-2.9c-2-1.9-3-4.4-3-7.6c0-3.1,1-5.7,3-7.6c2-1.9,4.6-2.9,7.8-2.9
					c2.7,0,5,0.7,6.9,2.1c1.9,1.4,3,3.3,3.5,5.7c0.1,0.5-0.2,0.7-0.6,0.7h-4.2c-0.4,0-0.6-0.2-0.7-0.5c-0.4-1.1-0.9-1.9-1.8-2.4
					c-0.8-0.6-1.8-0.8-3-0.8c-1.6,0-2.9,0.5-3.9,1.6c-1,1-1.5,2.4-1.5,4.2s0.5,3.1,1.5,4.1c1,1,2.3,1.6,3.9,1.6c1.2,0,2.1-0.3,3-0.9
					c0.8-0.6,1.4-1.4,1.8-2.4c0.1-0.4,0.4-0.6,0.7-0.6h4.2c0.5,0,0.7,0.2,0.6,0.7c-0.5,2.4-1.6,4.4-3.5,5.8
					C139,80.3,136.6,81,133.9,81z"/>
				<path class="st0" d="M144.9,80.5c-0.3,0-0.4-0.1-0.5-0.2c-0.1-0.1-0.1-0.3,0-0.5l8.2-18.6c0.1-0.3,0.4-0.5,0.8-0.5h4
					c0.4,0,0.6,0.2,0.8,0.5l8.1,18.6c0.1,0.2,0.1,0.4,0,0.6c-0.1,0.1-0.3,0.2-0.5,0.2h-4.3c-0.4,0-0.6-0.2-0.8-0.5l-1.2-3h-8.2
					l-1.2,3c-0.1,0.3-0.4,0.5-0.8,0.5H144.9z M152.9,72.9h4.9l-2.5-6.1L152.9,72.9z"/>
				<path class="st0" d="M182.3,60.7c0.5,0,0.7,0.2,0.7,0.7v3.1c0,0.4-0.2,0.6-0.7,0.6h-5.7v14.8c0,0.4-0.2,0.6-0.7,0.6h-4
					c-0.4,0-0.7-0.2-0.7-0.6V65.1h-5.7c-0.5,0-0.7-0.2-0.7-0.6v-3.1c0-0.4,0.2-0.7,0.7-0.7H182.3z"/>
			</g>
		</g>
		<g>
			<g>
				<path class="st0" d="M189.8,60.7c0.1,0,0.1,0,0.1,0.1v0.6c0,0.1,0,0.1-0.1,0.1h-1.4V65c0,0.1,0,0.1-0.1,0.1h-0.8
					c-0.1,0-0.1,0-0.1-0.1v-3.5H186c-0.1,0-0.1,0-0.1-0.1v-0.6c0-0.1,0-0.1,0.1-0.1H189.8z"/>
				<path class="st0" d="M190.6,65.1c-0.1,0-0.1,0-0.1-0.1v-4.2c0-0.1,0-0.1,0.1-0.1h0.5c0.1,0,0.1,0,0.1,0.1l1.6,2.5l1.6-2.5
					c0-0.1,0.1-0.1,0.1-0.1h0.5c0.1,0,0.1,0,0.1,0.1V65c0,0.1,0,0.1-0.1,0.1h-0.8c-0.1,0-0.1,0-0.1-0.1v-2.4l-1.1,1.7
					c0,0.1-0.1,0.1-0.1,0.1h-0.3c-0.1,0-0.1,0-0.1-0.1l-1.1-1.7V65c0,0.1,0,0.1-0.1,0.1H190.6z"/>
			</g>
		</g>
	</g>
	<path class="st1" d="M115.3,92.3c-1.8,8.3-4.5,16.4-8.3,24.2c-1.5,3-4.7,4.9-8.1,4.7c-32.1-2.3-61.5-19.2-79.5-45.9
		c-1.9-2.8-1.9-6.5,0-9.3c18-26.7,47.4-43.7,79.5-45.9c3.4-0.2,6.6,1.6,8.1,4.7c3.8,7.8,6.6,15.9,8.3,24.2l0,0
		C97.8,32.1,74.8,21.8,50.2,20c-3.4-0.2-6.6,1.6-8.1,4.7c-14.1,29-14.1,62.9,0,91.8c1.5,3,4.7,4.9,8.1,4.7
		C74.8,119.4,97.8,109.1,115.3,92.3L115.3,92.3z"/>
</g>
</svg>
